<svg width="72" height="72" viewBox="0 0 72 72" fill="none" xmlns="http://www.w3.org/2000/svg">
<rect width="72" height="72" rx="36" fill="white"/>
<g clip-path="url(#clip0_134_106)">
<path d="M50.2916 27.5727C49.8264 26.5547 49.053 25.9867 47.9542 25.982C45.1131 25.9695 42.2728 25.9773 39.4317 25.9773H39.0571V25.6508C39.0571 24.675 39.0586 23.6984 39.0571 22.7219C39.0556 21.3625 38.2845 20.3594 37.0059 20.0492C36.9704 20.0406 36.9395 20.0172 36.9063 20H23.6523C23.4492 20.0703 23.2392 20.1234 23.0452 20.2133C22.268 20.5719 21.7757 21.1852 21.5612 22.0367C21.5453 22.1016 21.5204 22.1633 21.5 22.2266V47.7734C21.6556 48.3719 21.895 48.9164 22.3572 49.3398C22.7333 49.6852 23.1856 49.8547 23.6523 50H48.3477C48.507 49.9477 48.6694 49.9039 48.8242 49.8414C49.6715 49.5008 50.2062 48.8695 50.4381 47.9617C50.4547 47.8977 50.4789 47.8359 50.5 47.7734V28.2031C50.4313 27.9922 50.3829 27.7719 50.2916 27.5727ZM31.6092 48.243C29.1548 48.243 26.7011 48.243 24.2474 48.243C23.5179 48.243 23.1985 47.9109 23.1985 47.1539C23.1977 42.3211 23.1977 37.4875 23.1977 32.6547V32.3172H31.8093V32.6742C31.8093 37.2727 31.8078 41.8711 31.8116 46.4695C31.8124 47.0516 31.8441 47.6328 31.8622 48.243H31.6092ZM31.8093 28.6883C31.8086 29.293 31.8093 29.8977 31.8093 30.525H23.1977V30.2242C23.1977 27.7539 23.1977 25.2844 23.1985 22.8148C23.1985 22.0992 23.5292 21.757 24.221 21.757C28.2599 21.7563 32.2987 21.7563 36.3376 21.757C37.0293 21.757 37.3594 22.0992 37.3601 22.8148C37.3609 23.857 37.3601 24.9 37.3601 25.9773C36.3572 25.9773 35.3951 25.9766 34.4337 25.9773C32.9097 25.9789 31.8124 27.1133 31.8093 28.6875V28.6883ZM48.8015 47.1578C48.8015 47.9109 48.4791 48.243 47.7488 48.243C43.352 48.243 38.9544 48.243 34.5576 48.243C33.8273 48.243 33.5071 47.9117 33.5071 47.1562C33.5063 42.7445 33.5063 38.332 33.5063 33.9203V33.6023H48.8015V47.1578ZM48.8015 31.8188H33.5086C33.5086 30.7242 33.4972 29.6523 33.5139 28.5805C33.5214 28.1117 33.8824 27.7703 34.337 27.7359C34.4209 27.7297 34.5062 27.7336 34.5915 27.7336H47.7223C48.4911 27.7336 48.8015 28.0539 48.8015 28.8492V31.8188Z" fill="url(#paint0_linear_134_106)"/>
<path d="M41.1815 35.3523C38.184 35.3484 35.7749 37.8242 35.7742 40.9117C35.7734 43.9906 38.1727 46.482 41.1414 46.4828C44.1215 46.4843 46.5306 44.0078 46.5336 40.9382C46.5366 37.8523 44.1457 35.357 41.1815 35.3523ZM41.1535 44.7273C39.1447 44.7265 37.4757 43.0031 37.4719 40.925C37.4681 38.8343 39.1484 37.1 41.1686 37.1086C43.1797 37.1171 44.8404 38.8453 44.8359 40.925C44.8321 43.0046 43.1631 44.7273 41.1535 44.7273Z" fill="url(#paint1_linear_134_106)"/>
<path d="M26.5961 35.0015C26.5976 36.5226 26.5976 38.0437 26.5961 39.5648C26.5954 40.1273 26.2404 40.5117 25.7352 40.5062C25.2443 40.5007 24.9014 40.1179 24.8999 39.5679C24.8977 38.8078 24.8992 38.0468 24.8992 37.2867C24.8992 36.5265 24.8977 35.7656 24.8999 35.0054C24.9014 34.4421 25.2541 34.0586 25.7601 34.064C26.251 34.0695 26.5954 34.4523 26.5961 35.0015Z" fill="url(#paint2_linear_134_106)"/>
<path d="M26.5962 26.7484C26.5962 27.128 26.5992 27.5085 26.5954 27.8882C26.5901 28.4077 26.2329 28.7859 25.7519 28.7874C25.2693 28.7898 24.9038 28.4124 24.9007 27.8968C24.8962 27.1273 24.8962 26.3577 24.9007 25.5874C24.903 25.0687 25.2625 24.6905 25.7435 24.689C26.2261 24.6866 26.5894 25.0632 26.5954 25.5796C26.6 25.9687 26.5962 26.3585 26.5962 26.7484Z" fill="url(#paint3_linear_134_106)"/>
<path d="M43.7016 29.7991C43.6956 30.2819 43.3218 30.6624 42.8535 30.6624C42.3853 30.6624 41.9994 30.2694 42.0054 29.7702C42.0107 29.2882 42.3838 28.9077 42.8528 28.9077C43.3218 28.9077 43.7077 29.3007 43.7016 29.7991Z" fill="white"/>
<path d="M47.1 29.7907C47.0978 30.2868 46.7141 30.6711 46.2315 30.6625C45.7663 30.6547 45.4016 30.2657 45.4038 29.779C45.4053 29.2836 45.789 28.8993 46.2716 28.9079C46.7375 28.9157 47.1023 29.3055 47.1 29.7907Z" fill="white"/>
</g>
<defs>
<linearGradient id="paint0_linear_134_106" x1="36" y1="20" x2="36" y2="50" gradientUnits="userSpaceOnUse">
<stop stop-color="#368CF2"/>
<stop offset="1" stop-color="#2D41A4"/>
</linearGradient>
<linearGradient id="paint1_linear_134_106" x1="41.1539" y1="35.3523" x2="41.1539" y2="46.4828" gradientUnits="userSpaceOnUse">
<stop stop-color="#378CF2"/>
<stop offset="1" stop-color="#2E43A6"/>
</linearGradient>
<linearGradient id="paint2_linear_134_106" x1="25.748" y1="34.064" x2="25.748" y2="40.5063" gradientUnits="userSpaceOnUse">
<stop stop-color="#378CF2"/>
<stop offset="1" stop-color="#2E43A6"/>
</linearGradient>
<linearGradient id="paint3_linear_134_106" x1="25.7475" y1="24.689" x2="25.7475" y2="28.7874" gradientUnits="userSpaceOnUse">
<stop stop-color="#378CF2"/>
<stop offset="1" stop-color="#2E43A6"/>
</linearGradient>
<clipPath id="clip0_134_106">
<rect width="29" height="30" fill="white" transform="translate(21.5 20)"/>
</clipPath>
</defs>
</svg>
