<svg width="401" height="58" viewBox="0 0 401 58" fill="none" xmlns="http://www.w3.org/2000/svg">
<path d="M-13.8029 28.2688L-7.64777 18.0681C-6.46439 15.8366 -3.50593 14.3017 -0.82796 14.3017H22.7321C26.9277 14.3017 30.3703 12.3496 30.3703 9.10375C30.3703 5.85791 26.9277 3.83309 22.7321 3.83309H-13.8029V28.2649V28.2688ZM-13.8029 28.2688V56L-7.64777 45.7802C-6.46439 43.6482 -3.50593 42.0942 -0.82796 42.0942H22.49C26.8509 42.1248 30.3703 38.967 30.3703 35.1815C30.3703 31.3959 26.9277 28.2688 22.49 28.2688H-13.8029ZM-35 55.9962V-10H22.7282C34.5659 -10 53.7651 -8.38474 53.7651 7.2129C53.7651 15.0213 47.0836 20.4221 39.2687 22.3704C48.924 25.3904 53.7651 30.7988 53.7651 38.19C53.7651 54.3044 35.4649 55.9196 22.7282 56H-35V55.9962ZM104.916 5.85791L76.3185 56H51.5021L91.3374 -10H118.494L158.367 56H133.513L126.75 44.2453H89.9005L96.0594 34.0868C97.2812 31.8552 100.259 30.3625 102.918 30.3625H118.874L104.916 5.86174V5.85791ZM278.158 5.85791L249.465 56H224.587L264.484 -10H291.698L331.571 56H306.717L299.916 44.2453H263.104L269.183 34.0868C270.424 31.8552 273.44 30.3625 276.06 30.3625H292.101L278.162 5.86174L278.158 5.85791ZM196.854 42.0942C201.672 42.0942 205.572 39.744 205.572 34.9748V-10H226.827V36.9116C226.827 51.1963 217.49 55.9962 205.33 55.9962H170.036C167.377 55.9962 164.457 54.4001 163.139 52.2298L157.1 42.0904H196.85L196.854 42.0942ZM370.066 42.0942C374.807 42.0942 378.784 39.744 378.784 34.9748V-10H400V36.9116C400 51.1963 390.644 55.9962 378.423 55.9962H343.271C340.593 55.9962 337.63 54.4001 336.293 52.2298L330.134 42.0904H370.066V42.0942Z" stroke="white" stroke-miterlimit="10"/>
</svg>
