<svg width="721" height="594" viewBox="0 0 721 594" fill="none" xmlns="http://www.w3.org/2000/svg">
<path fill-rule="evenodd" clip-rule="evenodd" d="M720 297.004C720 306.792 714.695 315.355 706.801 319.965L254.139 580.769C239.899 588.568 223.567 593 206.194 593C197.552 593 189.15 591.881 181.14 589.829L46 555.118L459.448 316.9C466.639 313.179 471.561 305.664 471.561 297.004C471.561 288.344 466.639 280.83 459.448 277.091L46 38.8732L181.14 4.17091C189.15 2.11914 197.552 1 206.194 1C223.567 1 239.899 5.44104 254.139 13.2218L706.801 274.035C714.695 278.645 720 287.207 720 297.004Z" stroke="white" stroke-opacity="0.25" stroke-miterlimit="10"/>
<path fill-rule="evenodd" clip-rule="evenodd" d="M57.5 139C145.029 139 216 209.754 216 296.996C216 384.237 145.029 455 57.5 455C-30.0291 455 -101 384.228 -101 296.996C-101 209.763 -30.0112 139 57.5 139Z" stroke="white" stroke-opacity="0.25" stroke-miterlimit="10"/>
</svg>
