<svg width="72" height="73" viewBox="0 0 72 73" fill="none" xmlns="http://www.w3.org/2000/svg">
<rect y="0.5" width="72" height="72" rx="36" fill="url(#paint0_linear_8_177)"/>
<g clip-path="url(#clip0_8_177)">
<path d="M50.2916 28.0727C49.8264 27.0547 49.053 26.4867 47.9542 26.482C45.1131 26.4695 42.2728 26.4773 39.4317 26.4773H39.0571V26.1508C39.0571 25.175 39.0586 24.1984 39.0571 23.2219C39.0556 21.8625 38.2845 20.8594 37.0059 20.5492C36.9704 20.5406 36.9395 20.5172 36.9063 20.5H23.6523C23.4492 20.5703 23.2392 20.6234 23.0452 20.7133C22.268 21.0719 21.7757 21.6852 21.5612 22.5367C21.5453 22.6016 21.5204 22.6633 21.5 22.7266V48.2734C21.6556 48.8719 21.895 49.4164 22.3572 49.8398C22.7333 50.1852 23.1856 50.3547 23.6523 50.5H48.3477C48.507 50.4477 48.6694 50.4039 48.8242 50.3414C49.6715 50.0008 50.2062 49.3695 50.4381 48.4617C50.4547 48.3977 50.4789 48.3359 50.5 48.2734V28.7031C50.4313 28.4922 50.3829 28.2719 50.2916 28.0727ZM31.6092 48.743C29.1548 48.743 26.7011 48.743 24.2474 48.743C23.5179 48.743 23.1985 48.4109 23.1985 47.6539C23.1977 42.8211 23.1977 37.9875 23.1977 33.1547V32.8172H31.8093V33.1742C31.8093 37.7727 31.8078 42.3711 31.8116 46.9695C31.8124 47.5516 31.8441 48.1328 31.8622 48.743H31.6092ZM31.8093 29.1883C31.8086 29.793 31.8093 30.3977 31.8093 31.025H23.1977V30.7242C23.1977 28.2539 23.1977 25.7844 23.1985 23.3148C23.1985 22.5992 23.5292 22.257 24.221 22.257C28.2599 22.2563 32.2987 22.2563 36.3376 22.257C37.0293 22.257 37.3594 22.5992 37.3601 23.3148C37.3609 24.357 37.3601 25.4 37.3601 26.4773C36.3572 26.4773 35.3951 26.4766 34.4337 26.4773C32.9097 26.4789 31.8124 27.6133 31.8093 29.1875V29.1883ZM48.8015 47.6578C48.8015 48.4109 48.4791 48.743 47.7488 48.743C43.352 48.743 38.9544 48.743 34.5576 48.743C33.8273 48.743 33.5071 48.4117 33.5071 47.6562C33.5063 43.2445 33.5063 38.832 33.5063 34.4203V34.1023H48.8015V47.6578ZM48.8015 32.3188H33.5086C33.5086 31.2242 33.4972 30.1523 33.5139 29.0805C33.5214 28.6117 33.8824 28.2703 34.337 28.2359C34.4209 28.2297 34.5062 28.2336 34.5915 28.2336H47.7223C48.4911 28.2336 48.8015 28.5539 48.8015 29.3492V32.3188Z" fill="white"/>
<path d="M41.1815 35.8523C38.184 35.8484 35.7749 38.3242 35.7742 41.4117C35.7734 44.4906 38.1727 46.982 41.1414 46.9828C44.1215 46.9843 46.5306 44.5078 46.5336 41.4382C46.5366 38.3523 44.1457 35.857 41.1815 35.8523ZM41.1535 45.2273C39.1447 45.2265 37.4757 43.5031 37.4719 41.425C37.4681 39.3343 39.1484 37.6 41.1686 37.6086C43.1797 37.6171 44.8404 39.3453 44.8359 41.425C44.8321 43.5046 43.1631 45.2273 41.1535 45.2273Z" fill="white"/>
<path d="M26.5961 35.5015C26.5976 37.0226 26.5976 38.5437 26.5961 40.0648C26.5954 40.6273 26.2404 41.0117 25.7352 41.0062C25.2443 41.0007 24.9014 40.6179 24.8999 40.0679C24.8977 39.3078 24.8992 38.5468 24.8992 37.7867C24.8992 37.0265 24.8977 36.2656 24.8999 35.5054C24.9014 34.9421 25.2541 34.5586 25.7601 34.564C26.251 34.5695 26.5954 34.9523 26.5961 35.5015Z" fill="white"/>
<path d="M26.5961 27.2484C26.5961 27.628 26.5991 28.0085 26.5954 28.3882C26.5901 28.9077 26.2329 29.2859 25.7518 29.2874C25.2692 29.2898 24.9037 28.9124 24.9007 28.3968C24.8961 27.6273 24.8961 26.8577 24.9007 26.0874C24.9029 25.5687 25.2624 25.1905 25.7435 25.189C26.2261 25.1866 26.5893 25.5632 26.5954 26.0796C26.5999 26.4687 26.5961 26.8585 26.5961 27.2484Z" fill="white"/>
<path d="M43.7016 30.2991C43.6956 30.7819 43.3218 31.1624 42.8535 31.1624C42.3853 31.1624 41.9994 30.7694 42.0054 30.2702C42.0107 29.7882 42.3838 29.4077 42.8528 29.4077C43.3218 29.4077 43.7077 29.8007 43.7016 30.2991Z" fill="white"/>
<path d="M47.1001 30.2907C47.0978 30.7868 46.7142 31.1711 46.2316 31.1625C45.7664 31.1547 45.4016 30.7657 45.4039 30.279C45.4054 29.7836 45.789 29.3993 46.2716 29.4079C46.7376 29.4157 47.1023 29.8055 47.1001 30.2907Z" fill="white"/>
</g>
<defs>
<linearGradient id="paint0_linear_8_177" x1="36" y1="0.5" x2="36" y2="72.5" gradientUnits="userSpaceOnUse">
<stop stop-color="#368FF5"/>
<stop offset="1" stop-color="#2C3EA1"/>
</linearGradient>
<clipPath id="clip0_8_177">
<rect width="29" height="30" fill="white" transform="translate(21.5 20.5)"/>
</clipPath>
</defs>
</svg>
