<svg width="120" height="104" viewBox="0 0 120 104" fill="none" xmlns="http://www.w3.org/2000/svg">
<path d="M0 22C0 9.84973 9.84974 0 22 0H98C110.15 0 120 9.84974 120 22V82C120 94.1503 110.15 104 98 104H22C9.84974 104 0 94.1503 0 82V22Z" fill="#3496DB"/>
<path fill-rule="evenodd" clip-rule="evenodd" d="M101 52C101 53.015 100.438 53.9031 99.573 54.4106L51.227 81.7312C49.7135 82.5348 47.9405 83 46.1243 83C45.2162 83 44.3081 82.8731 43.4432 82.6617L29 79.0246L73.1946 54.0723C73.973 53.6917 74.4919 52.8881 74.4919 52C74.4919 51.1119 73.973 50.3083 73.1946 49.9277L29 24.9754L43.4432 21.3383C44.3081 21.1269 45.2162 21 46.1243 21C47.9838 21 49.7135 21.4652 51.227 22.2688L99.573 49.5894C100.395 50.0546 101 50.985 101 52Z" fill="#0F68C9"/>
</svg>
