<svg width="1242" height="721" viewBox="0 0 1242 721" fill="none" xmlns="http://www.w3.org/2000/svg">
<path d="M191 589H23C10.8497 589 1 579.15 1 567V87.5C1 75.3497 10.8497 65.5 23 65.5H297.5C309.65 65.5 319.5 55.6503 319.5 43.5V23C319.5 10.8497 329.35 1 341.5 1H396.5H768H867C879.15 1 889 10.8497 889 23V43.5C889 55.6503 898.85 65.5 911 65.5H1219C1231.15 65.5 1241 75.3497 1241 87.5V448C1241 460.15 1231.15 470 1219 470H1053C1040.85 470 1031 479.85 1031 492V632C1031 644.15 1021.15 654 1009 654H948C935.85 654 926 663.85 926 676V697.5C926 709.65 916.15 719.5 904 719.5H341.5C329.35 719.5 319.5 709.65 319.5 697.5V676C319.5 663.85 309.65 654 297.5 654H235C222.85 654 213 644.15 213 632V611C213 598.85 203.15 589 191 589Z" stroke="#11B085" stroke-width="2"/>
</svg>
