<svg width="1244" height="722" viewBox="0 0 1244 722" fill="none" xmlns="http://www.w3.org/2000/svg">
<path d="M192 590H24C11.8497 590 2 580.15 2 568V88.5C2 76.3497 11.8497 66.5 24 66.5H298.5C310.65 66.5 320.5 56.6503 320.5 44.5V24C320.5 11.8497 330.35 2 342.5 2H868C880.15 2 890 11.8497 890 24V44.5C890 56.6503 899.85 66.5 912 66.5H1220C1232.15 66.5 1242 76.3497 1242 88.5V449C1242 461.15 1232.15 471 1220 471H1054C1041.85 471 1032 480.85 1032 493V633C1032 645.15 1022.15 655 1010 655H949C936.85 655 927 664.85 927 677V698.5C927 710.65 917.15 720.5 905 720.5H342.5C330.35 720.5 320.5 710.65 320.5 698.5V677C320.5 664.85 310.65 655 298.5 655H236C223.85 655 214 645.15 214 633V612C214 599.85 204.15 590 192 590Z" stroke="white" stroke-width="3"/>
</svg>
