<svg width="72" height="72" viewBox="0 0 72 72" fill="none" xmlns="http://www.w3.org/2000/svg">
<rect width="72" height="72" rx="36" fill="url(#paint0_linear_134_61)"/>
<g clip-path="url(#clip0_134_61)">
<path d="M51.5 32.3305C51.5 23.88 44.5482 17 36 17C27.4518 17 20.5 23.88 20.5 32.3305C20.5 39.8042 25.9363 46.0442 33.1009 47.3916V51.1432C33.1009 51.9053 32.6199 52.3432 31.777 52.3432C30.0571 52.3432 27.3241 53.2021 27.3241 55.5011V56.2632C27.3241 56.6716 27.6604 57 28.0691 57H44.1097C44.5227 57 44.8547 56.6674 44.8547 56.2632V55.5053C44.8547 53.2063 42.1217 52.3474 40.4018 52.3474C39.5589 52.3474 39.0779 51.9095 39.0779 51.1474V47.3621C46.1531 45.9432 51.4957 39.7453 51.4957 32.3347L51.5 32.3305ZM21.99 32.3305C21.99 24.6884 28.2777 18.4737 36 18.4737C43.7223 18.4737 50.01 24.6884 50.01 32.3305C50.01 39.9726 43.7266 46.1874 36 46.1874C35.37 46.1874 34.7527 46.1453 34.1439 46.0653C34.0545 46.0274 33.9523 46.0063 33.8459 46.0063C33.8161 46.0063 33.7906 46.0063 33.7608 46.0105C27.0942 44.9495 21.99 39.2232 21.99 32.3347V32.3305ZM40.4061 53.8168C41.3341 53.8168 43.3647 54.2421 43.3647 55.5011V55.5221H28.8183V55.5011C28.8183 54.2421 30.8489 53.8168 31.777 53.8168C33.433 53.8168 34.5952 52.7179 34.5952 51.1432V47.5979C35.0592 47.64 35.5275 47.6611 36 47.6611C36.5364 47.6611 37.0643 47.6358 37.5879 47.5811V51.1432C37.5879 52.7137 38.7458 53.8168 40.4061 53.8168ZM35.2678 44.36C35.7531 44.36 36.2256 44.3053 36.6726 44.1789C37.7922 43.8632 38.6522 43.1305 39.163 42.0611C40.5253 39.1937 39.7633 35.3621 39.4951 34.2379C39.7845 33.7284 39.9633 33.1474 39.9889 32.5326C42.0323 32.9242 42.3473 34.5705 42.6751 36.3053C42.8581 37.2779 43.0327 38.1958 43.5648 38.8063C43.8884 39.1768 44.2885 39.3705 44.71 39.3705C44.8632 39.3705 45.0207 39.3453 45.1825 39.2905C46.8342 38.7305 48.0603 35.0126 48.1795 32.7011C48.2902 30.5747 47.8219 27.5263 46.1489 25.9263C45.3102 25.1263 44.2374 24.7516 43.0497 24.8526C39.8569 25.1179 36.8855 27.6863 36.0341 28.4821C35.404 28.4905 34.8165 28.6463 34.2887 28.9116C33.6075 26.9663 34.8932 25.8716 36.2512 24.7221C37.0132 24.0779 37.7284 23.4716 37.9966 22.7095C38.2179 22.0779 38.0817 21.4842 37.6134 21.0842C36.298 19.9474 32.4283 20.7558 30.3466 21.8126C28.4309 22.7811 25.9959 24.7053 25.4297 26.9411C25.1487 28.0611 25.3573 29.1642 26.0385 30.1326C27.869 32.7347 31.6024 33.9979 32.7221 34.3263C33.0328 34.84 33.4628 35.2779 33.9694 35.6021C32.6071 37.16 31.0065 36.6042 29.3207 36.0147C28.3798 35.6863 27.4859 35.3747 26.6855 35.5263C26.0214 35.6526 25.5702 36.0695 25.4552 36.6674C25.1189 38.36 27.7583 41.2695 29.7251 42.5284C31.1767 43.4505 33.3223 44.3558 35.272 44.3558L35.2678 44.36ZM43.1732 26.3179C43.9437 26.2547 44.578 26.4695 45.1101 26.9789C46.3404 28.1579 46.7917 30.6589 46.6895 32.6211C46.6342 33.7158 46.3191 35.0337 45.8551 36.1537C45.3443 37.3789 44.8888 37.7916 44.7313 37.8716C44.7227 37.8632 44.71 37.8505 44.6972 37.8337C44.429 37.5221 44.2843 36.76 44.1438 36.0232C43.7862 34.1453 43.2583 31.3495 39.7547 30.9958C39.4099 30.0737 38.716 29.3158 37.8305 28.8779C39.0012 27.9263 41.0829 26.4947 43.1774 26.3179H43.1732ZM27.2645 29.2821C26.8218 28.6547 26.694 28.0021 26.8771 27.2905C27.2943 25.6484 29.2611 24.0105 31.0277 23.1179C32.0154 22.6211 33.3266 22.2253 34.5398 22.0653C35.868 21.8926 36.4555 22.0737 36.6045 22.1663C36.6045 22.1789 36.596 22.1958 36.5875 22.2168C36.4513 22.6042 35.8553 23.1095 35.2806 23.5979C33.8119 24.8442 31.6322 26.6968 33.0754 29.8758C32.5135 30.5453 32.1729 31.4084 32.1729 32.3432C32.1729 32.4232 32.1729 32.5032 32.1814 32.5789C30.7595 32.0526 28.465 30.9874 27.2645 29.2821ZM36.0851 29.9516C37.4176 29.9516 38.5032 31.0253 38.5032 32.3432C38.5032 33.6611 37.4176 34.7347 36.0851 34.7347C34.7527 34.7347 33.6671 33.6611 33.6671 32.3432C33.6671 31.0253 34.7527 29.9516 36.0851 29.9516ZM27.8605 38.8021C27.0431 37.7537 26.9112 37.1558 26.9154 36.9832C26.9282 36.9832 26.9452 36.9747 26.9665 36.9705C27.3752 36.8947 28.1116 37.1516 28.8311 37.4C30.6574 38.0358 33.3691 38.9789 35.4296 36.1537C35.6424 36.1916 35.8638 36.2084 36.0894 36.2084C36.8855 36.2084 37.6262 35.9726 38.2477 35.5642C38.4989 37.0463 38.7118 39.5516 37.822 41.4253C37.4942 42.1158 36.9876 42.5537 36.2725 42.7516C34.625 43.2189 32.2112 42.3516 30.5424 41.2863C29.6144 40.6926 28.6097 39.7621 27.8647 38.8021H27.8605Z" fill="white"/>
</g>
<defs>
<linearGradient id="paint0_linear_134_61" x1="36" y1="0" x2="36" y2="72" gradientUnits="userSpaceOnUse">
<stop stop-color="#378BF2"/>
<stop offset="1" stop-color="#2E46A9"/>
</linearGradient>
<clipPath id="clip0_134_61">
<rect width="31" height="40" fill="white" transform="translate(20.5 17)"/>
</clipPath>
</defs>
</svg>
