<svg width="341" height="341" viewBox="0 0 341 341" fill="none" xmlns="http://www.w3.org/2000/svg">
<rect width="340.4" height="340.4" rx="17.02" fill="#11B085"/>
<path d="M49.4007 247H44.0856V229.777H49.6361C51.3069 229.777 52.7365 230.121 53.9251 230.811C55.1137 231.495 56.0248 232.479 56.6583 233.763C57.2919 235.041 57.6086 236.572 57.6086 238.355C57.6086 240.149 57.2891 241.693 56.6499 242.989C56.0108 244.278 55.0801 245.27 53.8579 245.966C52.6356 246.655 51.1499 247 49.4007 247ZM46.1713 245.15H49.2661C50.6902 245.15 51.8703 244.875 52.8066 244.326C53.7429 243.776 54.4409 242.994 54.9007 241.979C55.3604 240.965 55.5903 239.756 55.5903 238.355C55.5903 236.964 55.3632 235.767 54.9091 234.764C54.455 233.755 53.7766 232.981 52.8739 232.443C51.9713 231.899 50.8471 231.627 49.5016 231.627H46.1713V245.15ZM60.838 247V234.083H62.8227V247H60.838ZM61.8472 231.93C61.4603 231.93 61.1268 231.798 60.8464 231.534C60.5717 231.271 60.4343 230.954 60.4343 230.584C60.4343 230.214 60.5717 229.897 60.8464 229.634C61.1268 229.37 61.4603 229.238 61.8472 229.238C62.2341 229.238 62.5648 229.37 62.8396 229.634C63.1199 229.897 63.2601 230.214 63.2601 230.584C63.2601 230.954 63.1199 231.271 62.8396 231.534C62.5648 231.798 62.2341 231.93 61.8472 231.93ZM75.6078 236.975L73.8249 237.48C73.7128 237.183 73.5474 236.894 73.3287 236.614C73.1157 236.328 72.8241 236.092 72.4541 235.907C72.0841 235.722 71.6103 235.63 71.0328 235.63C70.2423 235.63 69.5835 235.812 69.0565 236.177C68.5351 236.535 68.2744 236.992 68.2744 237.547C68.2744 238.041 68.4538 238.43 68.8126 238.716C69.1715 239.002 69.7321 239.241 70.4946 239.431L72.412 239.902C73.567 240.182 74.4276 240.611 74.9939 241.189C75.5601 241.761 75.8433 242.498 75.8433 243.401C75.8433 244.141 75.6302 244.802 75.2041 245.385C74.7836 245.968 74.1949 246.428 73.438 246.765C72.6812 247.101 71.8009 247.269 70.7974 247.269C69.4798 247.269 68.3893 246.983 67.5259 246.411C66.6625 245.839 66.1159 245.004 65.886 243.905L67.7698 243.434C67.9492 244.129 68.2884 244.651 68.7874 244.998C69.292 245.346 69.9508 245.52 70.7637 245.52C71.6888 245.52 72.4233 245.324 72.9671 244.931C73.5165 244.533 73.7913 244.057 73.7913 243.502C73.7913 243.053 73.6343 242.677 73.3203 242.375C73.0063 242.066 72.5242 241.836 71.8738 241.685L69.7209 241.18C68.5379 240.9 67.6689 240.466 67.1139 239.877C66.5644 239.283 66.2897 238.54 66.2897 237.648C66.2897 236.919 66.4943 236.275 66.9036 235.714C67.3185 235.153 67.882 234.713 68.594 234.394C69.3116 234.074 70.1246 233.914 71.0328 233.914C72.3111 233.914 73.3147 234.195 74.0436 234.755C74.778 235.316 75.2994 236.056 75.6078 236.975ZM84.0786 247.269C82.8676 247.269 81.8248 246.983 80.9501 246.411C80.0755 245.839 79.4027 245.052 78.9318 244.048C78.4608 243.045 78.2253 241.898 78.2253 240.609C78.2253 239.297 78.4664 238.139 78.9486 237.135C79.4364 236.126 80.1148 235.338 80.9838 234.772C81.8584 234.2 82.8788 233.914 84.0449 233.914C84.9532 233.914 85.7718 234.083 86.5006 234.419C87.2295 234.755 87.8266 235.226 88.2919 235.832C88.7573 236.437 89.046 237.144 89.1581 237.951H87.1734C87.022 237.362 86.6856 236.841 86.1642 236.387C85.6484 235.927 84.9532 235.697 84.0786 235.697C83.3049 235.697 82.6265 235.899 82.0434 236.303C81.4659 236.701 81.0146 237.264 80.6894 237.993C80.3699 238.716 80.2101 239.566 80.2101 240.541C80.2101 241.539 80.367 242.408 80.681 243.148C81.0006 243.888 81.4491 244.463 82.0266 244.872C82.6097 245.282 83.2937 245.486 84.0786 245.486C84.5944 245.486 85.0625 245.397 85.483 245.217C85.9035 245.038 86.2595 244.78 86.5511 244.443C86.8426 244.107 87.0501 243.703 87.1734 243.232H89.1581C89.046 243.995 88.7685 244.682 88.3255 245.293C87.8882 245.898 87.308 246.38 86.5847 246.739C85.8671 247.093 85.0317 247.269 84.0786 247.269ZM97.3072 247.269C96.1411 247.269 95.1179 246.992 94.2377 246.437C93.363 245.881 92.679 245.105 92.1857 244.107C91.6979 243.109 91.454 241.943 91.454 240.609C91.454 239.263 91.6979 238.088 92.1857 237.085C92.679 236.081 93.363 235.302 94.2377 234.747C95.1179 234.192 96.1411 233.914 97.3072 233.914C98.4734 233.914 99.4938 234.192 100.368 234.747C101.249 235.302 101.933 236.081 102.42 237.085C102.914 238.088 103.16 239.263 103.16 240.609C103.16 241.943 102.914 243.109 102.42 244.107C101.933 245.105 101.249 245.881 100.368 246.437C99.4938 246.992 98.4734 247.269 97.3072 247.269ZM97.3072 245.486C98.1931 245.486 98.9219 245.259 99.4938 244.805C100.066 244.351 100.489 243.754 100.764 243.014C101.038 242.274 101.176 241.472 101.176 240.609C101.176 239.745 101.038 238.941 100.764 238.195C100.489 237.449 100.066 236.847 99.4938 236.387C98.9219 235.927 98.1931 235.697 97.3072 235.697C96.4214 235.697 95.6926 235.927 95.1207 236.387C94.5488 236.847 94.1255 237.449 93.8508 238.195C93.5761 238.941 93.4387 239.745 93.4387 240.609C93.4387 241.472 93.5761 242.274 93.8508 243.014C94.1255 243.754 94.5488 244.351 95.1207 244.805C95.6926 245.259 96.4214 245.486 97.3072 245.486ZM116.29 234.083L111.514 247H109.495L104.718 234.083H106.871L110.437 244.376H110.572L114.137 234.083H116.29ZM123.863 247.269C122.619 247.269 121.545 246.994 120.642 246.445C119.745 245.89 119.053 245.116 118.565 244.124C118.083 243.126 117.842 241.965 117.842 240.642C117.842 239.319 118.083 238.153 118.565 237.144C119.053 236.129 119.731 235.338 120.6 234.772C121.475 234.2 122.495 233.914 123.662 233.914C124.334 233.914 124.999 234.026 125.655 234.251C126.311 234.475 126.908 234.839 127.446 235.344C127.984 235.843 128.413 236.505 128.733 237.329C129.052 238.153 129.212 239.168 129.212 240.373V241.214H119.255V239.498H127.194C127.194 238.77 127.048 238.119 126.756 237.547C126.47 236.975 126.061 236.524 125.529 236.193C125.002 235.863 124.379 235.697 123.662 235.697C122.871 235.697 122.187 235.893 121.61 236.286C121.038 236.673 120.598 237.177 120.289 237.8C119.981 238.422 119.827 239.089 119.827 239.801V240.945C119.827 241.92 119.995 242.747 120.331 243.426C120.673 244.099 121.147 244.612 121.753 244.965C122.358 245.312 123.062 245.486 123.863 245.486C124.385 245.486 124.856 245.413 125.276 245.268C125.702 245.116 126.07 244.892 126.378 244.595C126.686 244.292 126.925 243.916 127.093 243.468L129.01 244.006C128.808 244.656 128.469 245.228 127.993 245.722C127.516 246.209 126.927 246.591 126.227 246.865C125.526 247.135 124.738 247.269 123.863 247.269ZM132.231 247V234.083H134.149V236.034H134.283C134.519 235.394 134.945 234.876 135.561 234.478C136.178 234.08 136.873 233.881 137.647 233.881C137.793 233.881 137.975 233.883 138.194 233.889C138.412 233.895 138.578 233.903 138.69 233.914V235.933C138.623 235.916 138.468 235.891 138.227 235.857C137.992 235.818 137.742 235.798 137.479 235.798C136.851 235.798 136.29 235.93 135.797 236.193C135.309 236.451 134.922 236.81 134.636 237.27C134.356 237.724 134.216 238.243 134.216 238.826V247H132.231ZM153.321 234.083V235.764H146.627V234.083H153.321ZM148.578 230.988H150.562V243.3C150.562 243.86 150.644 244.281 150.806 244.561C150.975 244.836 151.188 245.021 151.446 245.116C151.709 245.206 151.987 245.251 152.278 245.251C152.497 245.251 152.676 245.24 152.816 245.217C152.956 245.189 153.069 245.167 153.153 245.15L153.556 246.933C153.422 246.983 153.234 247.034 152.993 247.084C152.752 247.14 152.446 247.168 152.076 247.168C151.516 247.168 150.966 247.048 150.428 246.807C149.895 246.565 149.452 246.198 149.099 245.705C148.752 245.212 148.578 244.589 148.578 243.838V230.988ZM158.569 239.229V247H156.584V229.777H158.569V236.101H158.737C159.04 235.434 159.494 234.904 160.099 234.511C160.71 234.113 161.523 233.914 162.538 233.914C163.418 233.914 164.189 234.091 164.851 234.444C165.512 234.792 166.025 235.327 166.39 236.05C166.76 236.768 166.945 237.682 166.945 238.792V247H164.96V238.927C164.96 237.901 164.694 237.107 164.161 236.547C163.634 235.98 162.903 235.697 161.966 235.697C161.316 235.697 160.733 235.835 160.217 236.109C159.707 236.384 159.303 236.785 159.006 237.312C158.714 237.839 158.569 238.478 158.569 239.229ZM175.992 247.269C174.747 247.269 173.673 246.994 172.771 246.445C171.874 245.89 171.181 245.116 170.694 244.124C170.211 243.126 169.97 241.965 169.97 240.642C169.97 239.319 170.211 238.153 170.694 237.144C171.181 236.129 171.86 235.338 172.729 234.772C173.603 234.2 174.624 233.914 175.79 233.914C176.463 233.914 177.127 234.026 177.783 234.251C178.439 234.475 179.036 234.839 179.574 235.344C180.113 235.843 180.541 236.505 180.861 237.329C181.181 238.153 181.34 239.168 181.34 240.373V241.214H171.383V239.498H179.322C179.322 238.77 179.176 238.119 178.885 237.547C178.599 236.975 178.189 236.524 177.657 236.193C177.13 235.863 176.508 235.697 175.79 235.697C174.999 235.697 174.315 235.893 173.738 236.286C173.166 236.673 172.726 237.177 172.418 237.8C172.109 238.422 171.955 239.089 171.955 239.801V240.945C171.955 241.92 172.123 242.747 172.46 243.426C172.802 244.099 173.275 244.612 173.881 244.965C174.486 245.312 175.19 245.486 175.992 245.486C176.513 245.486 176.984 245.413 177.405 245.268C177.831 245.116 178.198 244.892 178.506 244.595C178.815 244.292 179.053 243.916 179.221 243.468L181.139 244.006C180.937 244.656 180.597 245.228 180.121 245.722C179.644 246.209 179.056 246.591 178.355 246.865C177.654 247.135 176.866 247.269 175.992 247.269ZM44.0856 276V258.777H49.9052C51.2564 258.777 52.3609 259.021 53.2187 259.508C54.0821 259.99 54.7213 260.644 55.1362 261.468C55.551 262.292 55.7585 263.211 55.7585 264.226C55.7585 265.241 55.551 266.163 55.1362 266.993C54.7269 267.823 54.0933 268.484 53.2355 268.978C52.3777 269.466 51.2788 269.709 49.9389 269.709H45.7676V267.859H49.8716C50.7967 267.859 51.5396 267.699 52.1002 267.38C52.6609 267.06 53.0673 266.629 53.3196 266.085C53.5775 265.535 53.7065 264.916 53.7065 264.226C53.7065 263.537 53.5775 262.92 53.3196 262.376C53.0673 261.832 52.6581 261.406 52.0918 261.098C51.5255 260.784 50.7743 260.627 49.838 260.627H46.1713V276H44.0856ZM62.6503 276.303C61.8318 276.303 61.0889 276.149 60.4217 275.84C59.7546 275.526 59.2247 275.075 58.8323 274.486C58.4398 273.892 58.2436 273.174 58.2436 272.333C58.2436 271.593 58.3894 270.993 58.6809 270.534C58.9724 270.068 59.3621 269.704 59.8499 269.44C60.3376 269.177 60.8759 268.981 61.4646 268.852C62.0588 268.717 62.6559 268.611 63.2558 268.532C64.0408 268.431 64.6771 268.355 65.1649 268.305C65.6583 268.249 66.0171 268.156 66.2413 268.027C66.4712 267.899 66.5861 267.674 66.5861 267.355V267.287C66.5861 266.458 66.3591 265.813 65.9049 265.353C65.4564 264.893 64.7752 264.664 63.8614 264.664C62.9138 264.664 62.171 264.871 61.6327 265.286C61.0945 265.701 60.7161 266.144 60.4974 266.615L58.6136 265.942C58.95 265.157 59.3985 264.546 59.9592 264.109C60.5255 263.666 61.1422 263.357 61.8094 263.183C62.4821 263.004 63.1437 262.914 63.7941 262.914C64.209 262.914 64.6855 262.965 65.2237 263.066C65.7676 263.161 66.2918 263.36 66.7964 263.663C67.3066 263.966 67.7299 264.422 68.0663 265.034C68.4027 265.645 68.5709 266.463 68.5709 267.489V276H66.5861V274.251H66.4852C66.3507 274.531 66.1264 274.831 65.8124 275.151C65.4985 275.47 65.0808 275.742 64.5594 275.966C64.038 276.191 63.4016 276.303 62.6503 276.303ZM62.9531 274.52C63.738 274.52 64.3996 274.366 64.9378 274.057C65.4816 273.749 65.8909 273.351 66.1656 272.863C66.446 272.375 66.5861 271.862 66.5861 271.324V269.508C66.502 269.609 66.317 269.701 66.0311 269.785C65.7508 269.864 65.4256 269.934 65.0555 269.995C64.6911 270.051 64.3351 270.102 63.9875 270.147C63.6455 270.186 63.368 270.22 63.1549 270.248C62.6391 270.315 62.157 270.424 61.7084 270.576C61.2655 270.721 60.9067 270.943 60.632 271.24C60.3629 271.532 60.2283 271.93 60.2283 272.434C60.2283 273.124 60.4834 273.645 60.9936 273.998C61.5094 274.346 62.1626 274.52 62.9531 274.52ZM77.8112 263.083V264.764H71.1169V263.083H77.8112ZM73.068 259.988H75.0527V272.3C75.0527 272.86 75.134 273.281 75.2966 273.561C75.4648 273.836 75.6779 274.021 75.9358 274.116C76.1993 274.206 76.4768 274.251 76.7683 274.251C76.987 274.251 77.1664 274.24 77.3066 274.217C77.4467 274.189 77.5589 274.167 77.643 274.15L78.0466 275.933C77.9121 275.983 77.7243 276.034 77.4832 276.084C77.2421 276.14 76.9365 276.168 76.5665 276.168C76.0058 276.168 75.4564 276.048 74.9182 275.807C74.3856 275.565 73.9426 275.198 73.5894 274.705C73.2418 274.212 73.068 273.589 73.068 272.838V259.988ZM83.0589 268.229V276H81.0742V258.777H83.0589V265.101H83.2271C83.5298 264.434 83.984 263.904 84.5895 263.511C85.2006 263.113 86.0135 262.914 87.0283 262.914C87.9086 262.914 88.6795 263.091 89.341 263.444C90.0026 263.792 90.5156 264.327 90.88 265.05C91.2501 265.768 91.4351 266.682 91.4351 267.792V276H89.4504V267.927C89.4504 266.901 89.1841 266.107 88.6514 265.547C88.1244 264.98 87.3928 264.697 86.4565 264.697C85.8061 264.697 85.223 264.835 84.7072 265.109C84.197 265.384 83.7934 265.785 83.4962 266.312C83.2047 266.839 83.0589 267.478 83.0589 268.229ZM107.344 263.083V264.764H100.65V263.083H107.344ZM102.601 259.988H104.586V272.3C104.586 272.86 104.667 273.281 104.83 273.561C104.998 273.836 105.211 274.021 105.469 274.116C105.732 274.206 106.01 274.251 106.302 274.251C106.52 274.251 106.7 274.24 106.84 274.217C106.98 274.189 107.092 274.167 107.176 274.15L107.58 275.933C107.445 275.983 107.257 276.034 107.016 276.084C106.775 276.14 106.47 276.168 106.1 276.168C105.539 276.168 104.99 276.048 104.451 275.807C103.919 275.565 103.476 275.198 103.123 274.705C102.775 274.212 102.601 273.589 102.601 272.838V259.988ZM115.439 276.269C114.273 276.269 113.249 275.992 112.369 275.437C111.495 274.881 110.811 274.105 110.317 273.107C109.829 272.109 109.586 270.943 109.586 269.609C109.586 268.263 109.829 267.088 110.317 266.085C110.811 265.081 111.495 264.302 112.369 263.747C113.249 263.192 114.273 262.914 115.439 262.914C116.605 262.914 117.625 263.192 118.5 263.747C119.38 264.302 120.064 265.081 120.552 266.085C121.045 267.088 121.292 268.263 121.292 269.609C121.292 270.943 121.045 272.109 120.552 273.107C120.064 274.105 119.38 274.881 118.5 275.437C117.625 275.992 116.605 276.269 115.439 276.269ZM115.439 274.486C116.325 274.486 117.054 274.259 117.625 273.805C118.197 273.351 118.621 272.754 118.895 272.014C119.17 271.274 119.307 270.472 119.307 269.609C119.307 268.745 119.17 267.941 118.895 267.195C118.621 266.449 118.197 265.847 117.625 265.387C117.054 264.927 116.325 264.697 115.439 264.697C114.553 264.697 113.824 264.927 113.252 265.387C112.68 265.847 112.257 266.449 111.982 267.195C111.708 267.941 111.57 268.745 111.57 269.609C111.57 270.472 111.708 271.274 111.982 272.014C112.257 272.754 112.68 273.351 113.252 273.805C113.824 274.259 114.553 274.486 115.439 274.486ZM145.784 267.388C145.784 269.205 145.456 270.775 144.8 272.098C144.144 273.421 143.244 274.441 142.1 275.159C140.956 275.877 139.65 276.235 138.181 276.235C136.712 276.235 135.406 275.877 134.262 275.159C133.118 274.441 132.219 273.421 131.563 272.098C130.907 270.775 130.579 269.205 130.579 267.388C130.579 265.572 130.907 264.002 131.563 262.679C132.219 261.356 133.118 260.335 134.262 259.618C135.406 258.9 136.712 258.541 138.181 258.541C139.65 258.541 140.956 258.9 142.1 259.618C143.244 260.335 144.144 261.356 144.8 262.679C145.456 264.002 145.784 265.572 145.784 267.388ZM143.765 267.388C143.765 265.897 143.516 264.638 143.017 263.612C142.523 262.586 141.853 261.81 141.007 261.283C140.166 260.756 139.224 260.492 138.181 260.492C137.138 260.492 136.194 260.756 135.347 261.283C134.506 261.81 133.836 262.586 133.337 263.612C132.844 264.638 132.597 265.897 132.597 267.388C132.597 268.88 132.844 270.138 133.337 271.164C133.836 272.19 134.506 272.967 135.347 273.494C136.194 274.021 137.138 274.284 138.181 274.284C139.224 274.284 140.166 274.021 141.007 273.494C141.853 272.967 142.523 272.19 143.017 271.164C143.516 270.138 143.765 268.88 143.765 267.388ZM149.021 280.844V263.083H150.939V265.134H151.174C151.32 264.91 151.522 264.624 151.78 264.277C152.043 263.923 152.419 263.61 152.907 263.335C153.4 263.054 154.067 262.914 154.908 262.914C155.996 262.914 156.955 263.186 157.784 263.73C158.614 264.274 159.262 265.045 159.727 266.043C160.192 267.041 160.425 268.218 160.425 269.575C160.425 270.943 160.192 272.129 159.727 273.132C159.262 274.13 158.617 274.904 157.793 275.453C156.969 275.997 156.018 276.269 154.942 276.269C154.112 276.269 153.448 276.132 152.949 275.857C152.45 275.577 152.066 275.26 151.797 274.907C151.528 274.548 151.32 274.251 151.174 274.015H151.006V280.844H149.021ZM150.972 269.541C150.972 270.517 151.115 271.377 151.401 272.123C151.687 272.863 152.105 273.443 152.654 273.864C153.204 274.279 153.877 274.486 154.673 274.486C155.503 274.486 156.195 274.268 156.75 273.83C157.311 273.387 157.731 272.793 158.012 272.047C158.297 271.296 158.44 270.461 158.44 269.541C158.44 268.633 158.3 267.814 158.02 267.086C157.745 266.351 157.328 265.771 156.767 265.345C156.212 264.913 155.514 264.697 154.673 264.697C153.865 264.697 153.187 264.902 152.638 265.311C152.088 265.715 151.673 266.281 151.393 267.01C151.113 267.733 150.972 268.577 150.972 269.541ZM169.07 263.083V264.764H162.376V263.083H169.07ZM164.327 259.988H166.312V272.3C166.312 272.86 166.393 273.281 166.556 273.561C166.724 273.836 166.937 274.021 167.195 274.116C167.459 274.206 167.736 274.251 168.028 274.251C168.246 274.251 168.426 274.24 168.566 274.217C168.706 274.189 168.818 274.167 168.902 274.15L169.306 275.933C169.171 275.983 168.984 276.034 168.742 276.084C168.501 276.14 168.196 276.168 167.826 276.168C167.265 276.168 166.716 276.048 166.177 275.807C165.645 275.565 165.202 275.198 164.849 274.705C164.501 274.212 164.327 273.589 164.327 272.838V259.988ZM172.056 276V263.083H174.041V276H172.056ZM173.065 260.93C172.678 260.93 172.345 260.798 172.064 260.534C171.79 260.271 171.652 259.954 171.652 259.584C171.652 259.214 171.79 258.897 172.064 258.634C172.345 258.37 172.678 258.238 173.065 258.238C173.452 258.238 173.783 258.37 174.057 258.634C174.338 258.897 174.478 259.214 174.478 259.584C174.478 259.954 174.338 260.271 174.057 260.534C173.783 260.798 173.452 260.93 173.065 260.93ZM177.676 276V263.083H179.593V265.101H179.761C180.031 264.411 180.465 263.876 181.065 263.495C181.665 263.108 182.385 262.914 183.226 262.914C184.078 262.914 184.788 263.108 185.354 263.495C185.926 263.876 186.372 264.411 186.691 265.101H186.826C187.156 264.434 187.653 263.904 188.314 263.511C188.976 263.113 189.769 262.914 190.694 262.914C191.849 262.914 192.794 263.276 193.528 263.999C194.263 264.717 194.63 265.835 194.63 267.355V276H192.645V267.355C192.645 266.402 192.385 265.72 191.863 265.311C191.342 264.902 190.728 264.697 190.021 264.697C189.113 264.697 188.41 264.972 187.911 265.521C187.412 266.065 187.162 266.755 187.162 267.59V276H185.144V267.153C185.144 266.418 184.905 265.827 184.429 265.378C183.952 264.924 183.338 264.697 182.587 264.697C182.071 264.697 181.589 264.835 181.141 265.109C180.698 265.384 180.339 265.765 180.064 266.253C179.795 266.735 179.661 267.293 179.661 267.927V276H177.676ZM202.06 276.303C201.242 276.303 200.499 276.149 199.831 275.84C199.164 275.526 198.634 275.075 198.242 274.486C197.85 273.892 197.653 273.174 197.653 272.333C197.653 271.593 197.799 270.993 198.091 270.534C198.382 270.068 198.772 269.704 199.26 269.44C199.747 269.177 200.286 268.981 200.874 268.852C201.469 268.717 202.066 268.611 202.666 268.532C203.451 268.431 204.087 268.355 204.575 268.305C205.068 268.249 205.427 268.156 205.651 268.027C205.881 267.899 205.996 267.674 205.996 267.355V267.287C205.996 266.458 205.769 265.813 205.315 265.353C204.866 264.893 204.185 264.664 203.271 264.664C202.324 264.664 201.581 264.871 201.042 265.286C200.504 265.701 200.126 266.144 199.907 266.615L198.023 265.942C198.36 265.157 198.808 264.546 199.369 264.109C199.935 263.666 200.552 263.357 201.219 263.183C201.892 263.004 202.553 262.914 203.204 262.914C203.619 262.914 204.095 262.965 204.633 263.066C205.177 263.161 205.702 263.36 206.206 263.663C206.716 263.966 207.14 264.422 207.476 265.034C207.812 265.645 207.981 266.463 207.981 267.489V276H205.996V274.251H205.895C205.76 274.531 205.536 274.831 205.222 275.151C204.908 275.47 204.491 275.742 203.969 275.966C203.448 276.191 202.811 276.303 202.06 276.303ZM202.363 274.52C203.148 274.52 203.809 274.366 204.348 274.057C204.891 273.749 205.301 273.351 205.575 272.863C205.856 272.375 205.996 271.862 205.996 271.324V269.508C205.912 269.609 205.727 269.701 205.441 269.785C205.161 269.864 204.835 269.934 204.465 269.995C204.101 270.051 203.745 270.102 203.397 270.147C203.055 270.186 202.778 270.22 202.565 270.248C202.049 270.315 201.567 270.424 201.118 270.576C200.675 270.721 200.316 270.943 200.042 271.24C199.773 271.532 199.638 271.93 199.638 272.434C199.638 273.124 199.893 273.645 200.403 273.998C200.919 274.346 201.572 274.52 202.363 274.52ZM213.588 258.777V276H211.603V258.777H213.588ZM47.2141 305L42.5046 287.777H44.6239L48.2233 301.804H48.3915L52.0582 287.777H54.4129L58.0796 301.804H58.2478L61.8472 287.777H63.9665L59.257 305H57.1041L53.3028 291.275H53.1683L49.367 305H47.2141ZM70.5093 305.269C69.2647 305.269 68.191 304.994 67.2884 304.445C66.3913 303.89 65.6989 303.116 65.2111 302.124C64.729 301.126 64.4879 299.965 64.4879 298.642C64.4879 297.319 64.729 296.153 65.2111 295.144C65.6989 294.129 66.3773 293.338 67.2463 292.772C68.1209 292.2 69.1413 291.914 70.3075 291.914C70.9803 291.914 71.6447 292.026 72.3006 292.251C72.9566 292.475 73.5537 292.839 74.0919 293.344C74.6301 293.843 75.059 294.505 75.3786 295.329C75.6982 296.153 75.858 297.168 75.858 298.373V299.214H65.9007V297.498H73.8396C73.8396 296.77 73.6938 296.119 73.4023 295.547C73.1164 294.975 72.7071 294.524 72.1745 294.193C71.6475 293.863 71.0251 293.697 70.3075 293.697C69.517 293.697 68.833 293.893 68.2555 294.286C67.6836 294.673 67.2435 295.177 66.9351 295.8C66.6268 296.422 66.4726 297.089 66.4726 297.801V298.945C66.4726 299.92 66.6408 300.747 66.9772 301.426C67.3192 302.099 67.7929 302.612 68.3985 302.965C69.004 303.312 69.7076 303.486 70.5093 303.486C71.0307 303.486 71.5017 303.413 71.9222 303.268C72.3483 303.116 72.7155 302.892 73.0239 302.595C73.3322 302.292 73.5705 301.916 73.7387 301.468L75.6561 302.006C75.4543 302.656 75.1151 303.228 74.6386 303.722C74.162 304.209 73.5733 304.591 72.8725 304.865C72.1717 305.135 71.3839 305.269 70.5093 305.269ZM80.8618 287.777V305H78.8771V287.777H80.8618ZM86.4817 287.777V305H84.497V287.777H86.4817ZM92.1016 297.229V305H90.1168V292.083H92.0343V294.101H92.2025C92.5052 293.445 92.965 292.918 93.5817 292.52C94.1984 292.116 94.9945 291.914 95.9701 291.914C96.8447 291.914 97.61 292.094 98.266 292.453C98.9219 292.806 99.4321 293.344 99.7966 294.067C100.161 294.785 100.343 295.693 100.343 296.792V305H98.3585V296.927C98.3585 295.912 98.095 295.121 97.568 294.555C97.0409 293.983 96.3177 293.697 95.3982 293.697C94.7647 293.697 94.1984 293.835 93.6994 294.109C93.2061 294.384 92.8164 294.785 92.5305 295.312C92.2445 295.839 92.1016 296.478 92.1016 297.229ZM109.386 305.269C108.141 305.269 107.068 304.994 106.165 304.445C105.268 303.89 104.575 303.116 104.088 302.124C103.606 301.126 103.364 299.965 103.364 298.642C103.364 297.319 103.606 296.153 104.088 295.144C104.575 294.129 105.254 293.338 106.123 292.772C106.997 292.2 108.018 291.914 109.184 291.914C109.857 291.914 110.521 292.026 111.177 292.251C111.833 292.475 112.43 292.839 112.968 293.344C113.507 293.843 113.936 294.505 114.255 295.329C114.575 296.153 114.735 297.168 114.735 298.373V299.214H104.777V297.498H112.716C112.716 296.77 112.57 296.119 112.279 295.547C111.993 294.975 111.584 294.524 111.051 294.193C110.524 293.863 109.902 293.697 109.184 293.697C108.394 293.697 107.71 293.893 107.132 294.286C106.56 294.673 106.12 295.177 105.812 295.8C105.503 296.422 105.349 297.089 105.349 297.801V298.945C105.349 299.92 105.517 300.747 105.854 301.426C106.196 302.099 106.669 302.612 107.275 302.965C107.881 303.312 108.584 303.486 109.386 303.486C109.907 303.486 110.378 303.413 110.799 303.268C111.225 303.116 111.592 302.892 111.9 302.595C112.209 302.292 112.447 301.916 112.615 301.468L114.533 302.006C114.331 302.656 113.992 303.228 113.515 303.722C113.039 304.209 112.45 304.591 111.749 304.865C111.048 305.135 110.26 305.269 109.386 305.269ZM126.904 294.975L125.121 295.48C125.009 295.183 124.843 294.894 124.624 294.614C124.411 294.328 124.12 294.092 123.75 293.907C123.38 293.722 122.906 293.63 122.329 293.63C121.538 293.63 120.879 293.812 120.352 294.177C119.831 294.535 119.57 294.992 119.57 295.547C119.57 296.041 119.75 296.43 120.108 296.716C120.467 297.002 121.028 297.241 121.79 297.431L123.708 297.902C124.863 298.182 125.723 298.611 126.29 299.189C126.856 299.761 127.139 300.498 127.139 301.401C127.139 302.141 126.926 302.802 126.5 303.385C126.079 303.968 125.491 304.428 124.734 304.765C123.977 305.101 123.097 305.269 122.093 305.269C120.776 305.269 119.685 304.983 118.822 304.411C117.958 303.839 117.412 303.004 117.182 301.905L119.066 301.434C119.245 302.129 119.584 302.651 120.083 302.998C120.588 303.346 121.247 303.52 122.059 303.52C122.985 303.52 123.719 303.324 124.263 302.931C124.812 302.533 125.087 302.057 125.087 301.502C125.087 301.053 124.93 300.677 124.616 300.375C124.302 300.066 123.82 299.836 123.17 299.685L121.017 299.18C119.834 298.9 118.965 298.466 118.41 297.877C117.86 297.283 117.585 296.54 117.585 295.648C117.585 294.919 117.79 294.275 118.199 293.714C118.614 293.153 119.178 292.713 119.89 292.394C120.607 292.074 121.42 291.914 122.329 291.914C123.607 291.914 124.61 292.195 125.339 292.755C126.074 293.316 126.595 294.056 126.904 294.975ZM139.277 294.975L137.494 295.48C137.381 295.183 137.216 294.894 136.997 294.614C136.784 294.328 136.493 294.092 136.123 293.907C135.753 293.722 135.279 293.63 134.702 293.63C133.911 293.63 133.252 293.812 132.725 294.177C132.204 294.535 131.943 294.992 131.943 295.547C131.943 296.041 132.123 296.43 132.481 296.716C132.84 297.002 133.401 297.241 134.163 297.431L136.081 297.902C137.236 298.182 138.096 298.611 138.663 299.189C139.229 299.761 139.512 300.498 139.512 301.401C139.512 302.141 139.299 302.802 138.873 303.385C138.452 303.968 137.864 304.428 137.107 304.765C136.35 305.101 135.47 305.269 134.466 305.269C133.149 305.269 132.058 304.983 131.195 304.411C130.331 303.839 129.785 303.004 129.555 301.905L131.439 301.434C131.618 302.129 131.957 302.651 132.456 302.998C132.961 303.346 133.619 303.52 134.432 303.52C135.358 303.52 136.092 303.324 136.636 302.931C137.185 302.533 137.46 302.057 137.46 301.502C137.46 301.053 137.303 300.677 136.989 300.375C136.675 300.066 136.193 299.836 135.543 299.685L133.39 299.18C132.207 298.9 131.338 298.466 130.783 297.877C130.233 297.283 129.958 296.54 129.958 295.648C129.958 294.919 130.163 294.275 130.572 293.714C130.987 293.153 131.551 292.713 132.263 292.394C132.98 292.074 133.793 291.914 134.702 291.914C135.98 291.914 136.983 292.195 137.712 292.755C138.447 293.316 138.968 294.056 139.277 294.975Z" fill="white"/>
<g clip-path="url(#clip0_0_26)">
<path fill-rule="evenodd" clip-rule="evenodd" d="M296 121.5C296 124.496 294.372 127.117 291.867 128.615L151.841 209.255C147.458 211.627 142.322 213 137.062 213C134.432 213 131.802 212.626 129.297 212.001L87.4645 201.266L215.466 127.617C217.721 126.493 219.224 124.121 219.224 121.5C219.224 118.879 217.721 116.507 215.466 115.383L87.4645 41.734L129.297 30.9986C131.802 30.3745 134.432 30 137.062 30C142.448 30 147.458 31.3731 151.841 33.7449L291.867 114.385C294.247 115.758 296 118.504 296 121.5Z" fill="white"/>
<path fill-rule="evenodd" clip-rule="evenodd" d="M90.9714 72.6917C118.025 72.6917 139.943 94.5368 139.943 121.5C139.943 148.463 118.025 170.308 90.9714 170.308C63.9181 170.308 42 148.463 42 121.5C42 94.5368 63.9181 72.6917 90.9714 72.6917Z" fill="white"/>
</g>
<defs>
<clipPath id="clip0_0_26">
<rect width="254" height="183" fill="white" transform="translate(42 30)"/>
</clipPath>
</defs>
</svg>
