<svg width="48" height="48" viewBox="0 0 48 48" fill="none" xmlns="http://www.w3.org/2000/svg">
<path d="M23.83 47.66C36.9909 47.66 47.66 36.9909 47.66 23.83C47.66 10.6691 36.9909 0 23.83 0C10.6691 0 0 10.6691 0 23.83C0 36.9909 10.6691 47.66 23.83 47.66Z" fill="url(#paint0_linear_149_75)"/>
<path d="M30.97 16.4299C30.17 16.4299 29.52 17.0799 29.52 17.8799C29.52 18.6799 30.17 19.3299 30.97 19.3299C31.77 19.3299 32.42 18.6799 32.42 17.8799C32.42 17.0799 31.77 16.4299 30.97 16.4299Z" fill="white"/>
<path d="M24.4999 18.29C21.1299 18.29 18.3899 21.03 18.3899 24.4C18.3899 27.77 21.1299 30.51 24.4999 30.51C27.8699 30.51 30.6099 27.77 30.6099 24.4C30.6099 21.03 27.8699 18.29 24.4999 18.29ZM24.4999 28.31C22.3399 28.31 20.5899 26.55 20.5899 24.4C20.5899 22.25 22.3499 20.49 24.4999 20.49C26.6499 20.49 28.4099 22.25 28.4099 24.4C28.4099 26.55 26.6499 28.31 24.4999 28.31Z" fill="white"/>
<path d="M29.35 36.8H19.45C15.34 36.8 12 33.46 12 29.35V19.45C12 15.34 15.34 12 19.45 12H29.35C33.46 12 36.8 15.34 36.8 19.45V29.35C36.8 33.46 33.46 36.8 29.35 36.8ZM19.45 14.33C16.63 14.33 14.33 16.63 14.33 19.45V29.35C14.33 32.17 16.63 34.47 19.45 34.47H29.35C32.17 34.47 34.47 32.17 34.47 29.35V19.45C34.47 16.63 32.17 14.33 29.35 14.33H19.45Z" fill="white"/>
<defs>
<linearGradient id="paint0_linear_149_75" x1="23.83" y1="0" x2="23.83" y2="47.66" gradientUnits="userSpaceOnUse">
<stop stop-color="#368BF2"/>
<stop offset="1" stop-color="#2F4BAE"/>
</linearGradient>
</defs>
</svg>
