<svg width="72" height="72" viewBox="0 0 72 72" fill="none" xmlns="http://www.w3.org/2000/svg">
<rect width="72" height="72" rx="36" fill="url(#paint0_linear_8_195)"/>
<g clip-path="url(#clip0_8_195)">
<path d="M47.9616 36.8409C48.1035 36.1591 48.1183 36.1451 47.456 35.9392C47.1523 35.845 47.046 35.7125 47.0479 35.3893C47.064 32.8458 47.0571 30.3022 47.0571 27.7586V27.3395H42.1437V24.3493H36.3679V22H27.5902V27.3598H24.6896V27.7798C24.6896 30.3347 24.6845 32.8895 24.697 35.4443C24.6984 35.7251 24.6152 35.863 24.3393 35.9297C24.1133 35.9842 23.8979 36.0811 23.6594 36.1658C24.5528 40.4702 25.442 44.7529 26.3414 49.086H20.5V49.9955H47.4042V49.0694H45.4399C45.4464 48.9995 45.446 48.9563 45.4547 48.9148C46.2894 44.8899 47.1232 40.865 47.9616 36.8409ZM42.1932 28.3486H46.0704V29.9601H42.1932V28.3486ZM42.1677 30.9791H46.0579V35.4268C45.4663 35.2185 44.8918 35.0162 44.3164 34.8147C43.6735 34.5899 43.0283 34.3722 42.3896 34.1365C42.2995 34.1036 42.1784 33.9887 42.177 33.9103C42.1627 32.9445 42.1677 31.9787 42.1677 30.9791ZM28.6029 22.9617H35.3765V24.3561H31.7498V27.3201H28.6029V22.9617ZM25.6986 28.3517H31.7332V29.2427C31.7332 30.5077 31.7323 31.7727 31.7341 33.0382C31.7346 33.1959 31.7369 33.3167 31.5308 33.3884C29.6284 34.0473 27.7317 34.7201 25.8331 35.388C25.8035 35.3984 25.7674 35.392 25.6986 35.3952V28.3517ZM35.3733 49.0392H27.3393C27.0837 47.8138 26.83 46.5988 26.5772 45.3838C26.1788 43.4685 25.7813 41.5527 25.382 39.6373C25.3431 39.4494 25.2955 39.3088 25.5728 39.2128C28.773 38.1019 31.9671 36.9743 35.1625 35.8513C35.2235 35.8301 35.2864 35.8148 35.3733 35.7891V49.0392ZM35.3751 34.73C31.9851 35.9216 28.571 37.1217 25.1208 38.3345C25.0168 37.8491 24.9068 37.3939 24.8334 36.9329C24.8227 36.8671 24.9753 36.7359 25.0769 36.6994C26.5185 36.183 27.9641 35.6773 29.4094 35.1699C31.3394 34.493 33.2695 33.817 35.2 33.1405C35.2499 33.1229 35.3007 33.1072 35.3751 33.0828V34.73ZM35.6511 31.9476C34.7794 32.236 33.9151 32.5447 33.0481 32.8462C32.9552 32.8787 32.8604 32.9075 32.7551 32.9418V25.3525H41.1408V33.6989C40.2682 33.3933 39.4159 33.0954 38.5642 32.7971C37.7516 32.5127 36.9419 32.2202 36.1243 31.9494C35.9815 31.9016 35.7939 31.9003 35.6511 31.9476ZM36.3721 34.4082C36.3878 33.9815 36.3767 33.5538 36.3767 33.0684C39.9382 34.3199 43.4373 35.5498 46.9642 36.7891C46.8542 37.3132 46.7498 37.8121 46.6416 38.33C44.6921 37.6467 42.7843 36.9798 40.8773 36.3092C39.4756 35.8161 38.0784 35.3109 36.672 34.831C36.4312 34.7489 36.3633 34.639 36.3721 34.4082ZM44.4846 48.7625C44.4416 48.9702 44.3756 49.059 44.1412 49.0581C41.6464 49.0504 39.1516 49.0536 36.6568 49.0522C36.5796 49.0522 36.5019 49.0392 36.4012 49.0297V35.7738C39.7681 36.9572 43.0912 38.1244 46.4401 39.3016C46.2765 40.1069 46.118 40.901 45.953 41.6937C45.4635 44.0498 44.9681 46.405 44.4846 48.7625Z" fill="white"/>
<path d="M24.5787 47.1851H21.9526V48.0814H24.5787V47.1851Z" fill="white"/>
<path d="M51.5 49.0889H48.9072V50.0001H51.5V49.0889Z" fill="white"/>
</g>
<defs>
<linearGradient id="paint0_linear_8_195" x1="36" y1="0" x2="36" y2="72" gradientUnits="userSpaceOnUse">
<stop stop-color="#2B7CDC"/>
<stop offset="1" stop-color="#2D43A5"/>
</linearGradient>
<clipPath id="clip0_8_195">
<rect width="31" height="28" fill="white" transform="translate(20.5 22)"/>
</clipPath>
</defs>
</svg>
