<svg width="142" height="69" viewBox="0 0 142 69" fill="none" xmlns="http://www.w3.org/2000/svg">
<g clip-path="url(#clip0_0_65)">
<path d="M68.39 0.304932H0V68.6949H68.39V0.304932Z" fill="white"/>
<path fill-rule="evenodd" clip-rule="evenodd" d="M2.12 54.035V44.265H10.63C12.38 44.265 15.21 44.505 15.21 46.815C15.21 47.975 14.22 48.775 13.07 49.055C14.49 49.505 15.21 50.305 15.21 51.395C15.21 53.785 12.51 54.015 10.63 54.035H2.12ZM5.24 49.935L6.15 48.425C6.32 48.095 6.75999 47.865 7.16 47.865H10.63C11.25 47.865 11.76 47.575 11.76 47.095C11.76 46.615 11.25 46.315 10.63 46.315H5.24V49.935ZM5.24 49.935V54.045L6.15 52.535C6.32 52.215 6.75999 51.985 7.16 51.985H10.6C11.24 51.985 11.76 51.525 11.76 50.965C11.76 50.405 11.25 49.945 10.6 49.945H5.25L5.24 49.935ZM22.75 46.615L18.53 54.035H14.87L20.74 44.265H24.74L30.62 54.035H26.95L25.95 52.295H20.52L21.43 50.795C21.61 50.465 22.05 50.245 22.44 50.245H24.79L22.73 46.615H22.75ZM48.3 46.615L44.07 54.035H40.4L46.28 44.265H50.29L56.17 54.035H52.5L51.5 52.295H46.07L46.97 50.795C47.15 50.465 47.6 50.245 47.98 50.245H50.35L48.29 46.615H48.3ZM36.31 51.985C37.02 51.985 37.6 51.635 37.6 50.935V44.275H40.73V51.215C40.73 53.325 39.35 54.045 37.56 54.045H32.36C31.97 54.045 31.54 53.805 31.34 53.485L30.45 51.985H36.31ZM61.86 51.985C62.56 51.985 63.15 51.635 63.15 50.935V44.275H66.28V51.215C66.28 53.325 64.9 54.045 63.1 54.045H57.92C57.52 54.045 57.09 53.805 56.89 53.485L55.98 51.985H61.87H61.86Z" fill="#005EAB"/>
<path fill-rule="evenodd" clip-rule="evenodd" d="M44.34 22.285C44.34 22.525 44.21 22.735 44.01 22.855L32.83 29.315C32.48 29.505 32.07 29.615 31.65 29.615C31.44 29.615 31.23 29.585 31.03 29.535L27.69 28.675L37.91 22.775C38.09 22.685 38.21 22.495 38.21 22.285C38.21 22.075 38.09 21.885 37.91 21.795L27.69 15.895L31.03 15.035C31.23 14.985 31.44 14.955 31.65 14.955C32.08 14.955 32.48 15.065 32.83 15.255L44.01 21.715C44.2 21.825 44.34 22.045 44.34 22.285Z" fill="#005EAB"/>
<path fill-rule="evenodd" clip-rule="evenodd" d="M27.97 18.3749C30.13 18.3749 31.88 20.1249 31.88 22.2849C31.88 24.4449 30.13 26.1949 27.97 26.1949C25.81 26.1949 24.06 24.4449 24.06 22.2849C24.06 20.1249 25.81 18.3749 27.97 18.3749Z" fill="#005EAB"/>
<path d="M73.27 29.6549H81.16V31.3649H75.53V33.4149H80.66V35.0249H75.53V37.4649H81.4V39.1749H73.28V29.6549H73.27ZM82.81 29.6549H84.94V39.1749H82.81V29.6549ZM88.15 36.0549C88.2 36.6949 88.36 37.1549 88.61 37.4549C88.86 37.7549 89.24 37.8949 89.74 37.8949C89.96 37.8949 90.15 37.8649 90.31 37.8049C90.46 37.7449 90.61 37.6349 90.75 37.4749C90.8 37.4249 90.84 37.3749 90.88 37.3149C90.92 37.2649 90.96 37.2049 91.01 37.1449H93.19C92.85 37.9049 92.4 38.4549 91.84 38.8149C91.27 39.1649 90.56 39.3449 89.69 39.3449C88.52 39.3449 87.61 39.0249 86.94 38.3849C86.28 37.7449 85.95 36.8549 85.95 35.7249C85.95 34.5949 86.28 33.6549 86.93 33.0049C87.59 32.3549 88.5 32.0349 89.68 32.0349C90.86 32.0349 91.79 32.3549 92.42 32.9849C93.06 33.6149 93.37 34.5249 93.37 35.7249V35.9149C93.37 35.9149 93.37 36.0049 93.36 36.0649H88.16L88.15 36.0549ZM88.15 34.8549H91.11C91.06 34.4149 90.91 34.0849 90.65 33.8449C90.4 33.6149 90.06 33.4949 89.63 33.4949C89.2 33.4949 88.86 33.6149 88.61 33.8449C88.35 34.0849 88.2 34.4149 88.15 34.8549ZM101.21 34.6849H99.07C98.98 34.2549 98.82 33.9549 98.6 33.7649C98.38 33.5849 98.08 33.4949 97.69 33.4949C97.14 33.4949 96.72 33.6849 96.41 34.0649C96.11 34.4449 95.96 34.9949 95.96 35.7149C95.96 35.7849 95.96 35.8549 95.96 35.9349C95.96 36.0049 95.96 36.0749 95.96 36.1449C96.01 36.5849 96.14 36.9849 96.37 37.3449C96.6 37.7049 97.01 37.8949 97.63 37.8949C98.03 37.8949 98.34 37.7949 98.56 37.5949C98.78 37.3949 98.95 37.0649 99.06 36.6049H101.2C101.04 37.5049 100.65 38.1849 100.03 38.6549C99.41 39.1249 98.57 39.3549 97.53 39.3549C96.35 39.3549 95.42 39.0349 94.77 38.4049C94.11 37.7749 93.79 36.8749 93.79 35.7249C93.79 34.5749 94.12 33.6849 94.8 33.0249C95.47 32.3749 96.39 32.0349 97.56 32.0349C98.63 32.0349 99.48 32.2649 100.11 32.7249C100.74 33.1849 101.11 33.8349 101.21 34.6949V34.6849ZM101.36 32.2149H102.39V30.3949H104.53V32.2149H105.84V33.5049H104.53V37.2449C104.53 37.5349 104.59 37.7249 104.7 37.7949C104.81 37.8749 105.1 37.9049 105.55 37.9049H105.84V39.3049C105.76 39.3049 105.68 39.3049 105.59 39.3049C105.5 39.3049 105.42 39.3049 105.33 39.3049C105.2 39.3149 105.07 39.3249 104.95 39.3249C104.82 39.3249 104.7 39.3249 104.59 39.3249C103.65 39.3249 103.05 39.1449 102.79 38.7749C102.53 38.4149 102.4 37.8549 102.4 37.1149V33.4849H101.37V32.1949L101.36 32.2149ZM106.69 32.2149H108.82V33.3149C109.04 32.9349 109.33 32.6349 109.69 32.4049C110.04 32.1749 110.4 32.0449 110.78 32.0349H110.92C110.99 32.0349 111.06 32.0349 111.12 32.0349C111.19 32.0349 111.26 32.0449 111.34 32.0549V33.9349C111.34 33.9349 111.27 33.9349 111.23 33.9349C111.19 33.9349 111.15 33.9349 111.11 33.9349C111.03 33.9349 110.95 33.9149 110.88 33.9149C110.81 33.9149 110.73 33.9149 110.65 33.9149C110.05 33.9149 109.6 34.0649 109.29 34.3549C108.98 34.6549 108.83 35.0949 108.83 35.6749V39.1949H106.7V32.2349L106.69 32.2149ZM112.03 32.2149H114.16V39.1749H112.03V32.2149ZM112.03 29.6549H114.15V31.3649H112.03V29.6549ZM122.59 34.6849H120.45C120.35 34.2549 120.2 33.9549 119.98 33.7649C119.76 33.5849 119.46 33.4949 119.07 33.4949C118.52 33.4949 118.1 33.6849 117.8 34.0649C117.5 34.4449 117.35 34.9949 117.35 35.7149C117.35 35.7849 117.35 35.8549 117.35 35.9349C117.35 36.0049 117.35 36.0749 117.35 36.1449C117.39 36.5849 117.53 36.9849 117.76 37.3449C117.98 37.7049 118.4 37.8949 119.01 37.8949C119.41 37.8949 119.72 37.7949 119.94 37.5949C120.16 37.3949 120.33 37.0649 120.44 36.6049H122.58C122.42 37.5049 122.03 38.1849 121.41 38.6549C120.79 39.1249 119.96 39.3549 118.91 39.3549C117.72 39.3549 116.8 39.0349 116.15 38.4049C115.49 37.7749 115.16 36.8749 115.16 35.7249C115.16 34.5749 115.49 33.6849 116.17 33.0249C116.84 32.3749 117.76 32.0349 118.92 32.0349C119.99 32.0349 120.84 32.2649 121.47 32.7249C122.1 33.1849 122.47 33.8349 122.57 34.6949L122.59 34.6849ZM123.27 34.4449C123.31 33.6149 123.62 33.0049 124.19 32.6149C124.76 32.2249 125.61 32.0249 126.74 32.0249C127.56 32.0249 128.23 32.1149 128.76 32.3049C129.29 32.4849 129.67 32.7649 129.88 33.1449V33.1649C129.99 33.3349 130.05 33.5149 130.09 33.7149C130.13 33.9149 130.14 34.2149 130.14 34.6049V38.1049C130.14 38.3449 130.17 38.5549 130.23 38.7249C130.29 38.8949 130.39 39.0449 130.53 39.1749H128.36C128.31 39.1049 128.27 39.0449 128.23 38.9849C128.2 38.9349 128.16 38.8849 128.14 38.8249C128.1 38.7449 128.07 38.6649 128.05 38.5749C128.03 38.4849 128.02 38.3749 128.02 38.2449C127.88 38.3849 127.75 38.5049 127.62 38.6049C127.49 38.7149 127.36 38.8049 127.23 38.8849C126.96 39.0649 126.68 39.1749 126.39 39.2449C126.11 39.3049 125.75 39.3449 125.35 39.3449C124.64 39.3449 124.07 39.1549 123.64 38.7749C123.2 38.3949 122.99 37.8949 122.99 37.2749C122.99 36.6549 123.16 36.2049 123.51 35.8449C123.85 35.4949 124.4 35.2449 125.14 35.1049C125.52 35.0349 125.95 34.9749 126.42 34.9049C126.89 34.8449 127.41 34.7949 127.97 34.7449C127.97 34.3249 127.9 34.0149 127.77 33.7949C127.64 33.5849 127.29 33.4749 126.72 33.4749C126.25 33.4749 125.9 33.5449 125.67 33.6849C125.44 33.8249 125.29 34.0749 125.22 34.4249H123.24L123.27 34.4449ZM128.04 35.9249C127.85 35.9549 127.68 35.9749 127.54 35.9949C127.4 36.0149 127.27 36.0249 127.15 36.0349C127.08 36.0549 127.02 36.0649 126.96 36.0749C126.9 36.0749 126.84 36.0949 126.78 36.1049C126.73 36.1049 126.68 36.1249 126.63 36.1349C126.58 36.1449 126.53 36.1549 126.48 36.1649C125.97 36.2549 125.63 36.3649 125.43 36.5149C125.23 36.6549 125.14 36.8649 125.14 37.1349C125.14 37.3749 125.24 37.5549 125.45 37.7049C125.65 37.8449 125.92 37.9149 126.25 37.9149C126.99 37.9149 127.48 37.7249 127.7 37.3449C127.93 36.9649 128.04 36.4949 128.04 35.9449V35.9249ZM131.41 29.6549H133.54V39.1749H131.41V29.6549ZM134.55 36.9149H136.69C136.78 37.2749 136.96 37.5249 137.2 37.6749C137.44 37.8249 137.83 37.8949 138.36 37.8949C138.79 37.8949 139.14 37.8349 139.4 37.7149C139.66 37.5949 139.78 37.4349 139.78 37.2449C139.78 37.1549 139.76 37.0849 139.73 37.0249C139.7 36.9649 139.63 36.9049 139.53 36.8549C139.46 36.8149 139.37 36.7849 139.26 36.7449C139.15 36.7049 139.01 36.6649 138.84 36.6249L136.49 35.9349C135.93 35.7649 135.51 35.5549 135.23 35.2749C134.95 35.0049 134.8 34.6749 134.8 34.2849C134.8 33.6249 135.12 33.0849 135.76 32.6649C136.4 32.2449 137.23 32.0349 138.25 32.0349C138.96 32.0349 139.57 32.1349 140.08 32.3449C140.6 32.5549 140.99 32.8449 141.26 33.2249C141.29 33.2549 141.31 33.2849 141.33 33.3149C141.34 33.3349 141.36 33.3749 141.38 33.4049C141.43 33.5049 141.48 33.6049 141.52 33.7049C141.56 33.8149 141.59 33.9449 141.62 34.0949C141.62 34.1249 141.64 34.1649 141.65 34.2149C141.66 34.2549 141.67 34.3049 141.68 34.3449H139.6C139.54 34.0349 139.41 33.8149 139.21 33.6849C139.01 33.5649 138.69 33.4949 138.26 33.4949C137.83 33.4949 137.5 33.5549 137.26 33.6549C137.02 33.7649 136.9 33.9149 136.9 34.1049C136.9 34.1849 136.92 34.2549 136.98 34.3149C137.04 34.3749 137.12 34.4249 137.22 34.4549L140.54 35.3949C140.98 35.5149 141.33 35.7249 141.59 36.0249C141.86 36.3249 141.99 36.6549 141.99 37.0349V37.1149C141.99 37.1149 141.99 37.1649 141.97 37.1949C141.93 37.6149 141.72 38.0049 141.34 38.3849C140.97 38.7549 140.52 39.0149 139.99 39.1649C139.97 39.1649 139.96 39.1749 139.94 39.1749H139.88C139.64 39.2349 139.4 39.2749 139.14 39.3049C138.88 39.3249 138.6 39.3449 138.28 39.3449C137.1 39.3449 136.19 39.1349 135.55 38.7249C134.92 38.3149 134.58 37.7049 134.54 36.9149H134.55Z" fill="white"/>
</g>
<defs>
<clipPath id="clip0_0_65">
<rect width="141.98" height="68.39" fill="white" transform="translate(0 0.304932)"/>
</clipPath>
</defs>
</svg>
