<svg width="72" height="72" viewBox="0 0 72 72" fill="none" xmlns="http://www.w3.org/2000/svg">
<rect width="72" height="72" rx="36" fill="url(#paint0_linear_8_204)"/>
<g clip-path="url(#clip0_8_204)">
<path d="M48.9276 36.1178C47.8368 31.6687 46.7342 27.2214 45.6199 22.7777C45.198 21.0963 43.7868 20.0073 42.0506 20.0045C38.0205 19.9982 33.9913 19.9982 29.9612 20.0045C28.2141 20.0082 26.8164 21.1 26.3874 22.8132C25.2739 27.2569 24.1759 31.7042 23.0706 36.1497C23.0543 36.2143 23.0235 36.2743 23 36.3371V37.1541C23.0244 37.2023 23.0561 37.2478 23.0724 37.2988C23.3874 38.3051 24.1868 38.9065 25.2441 38.9137C26.2815 38.9201 27.3198 38.9156 28.3571 38.9156H28.7672V39.3032C28.7672 40.3577 28.7618 41.4122 28.7708 42.4676C28.7745 42.9416 29.0985 43.2773 29.5131 43.2701C29.9187 43.2619 30.2165 42.938 30.2373 42.4803C30.2409 42.4012 30.2382 42.3211 30.2382 42.2419V38.9338H33.8229V46.894H33.411C31.8423 46.894 30.2744 46.8867 28.7066 46.8967C27.4076 46.9049 26.2543 47.6482 25.6396 48.7246C25.3436 49.2413 25.1726 49.8355 25.1689 50.4614C25.1653 51.1902 25.5491 51.7161 26.238 51.9317C26.2896 51.9472 26.3376 51.9772 26.3874 52H45.6253C46.1992 51.8107 46.6917 51.5032 46.7949 50.8627C46.8546 50.4933 46.8293 50.0893 46.7514 49.7199C46.411 48.0886 44.9355 46.9031 43.2681 46.8958C41.6088 46.8885 39.9486 46.8921 38.2893 46.8912C38.2676 46.8912 38.2459 46.883 38.1988 46.8739V38.9156H38.579C41.3001 38.9156 44.0203 38.9183 46.7405 38.9137C47.8757 38.9119 48.752 38.235 48.9611 37.1578C49.0253 36.8248 49.0081 36.449 48.9276 36.1178ZM43.0128 48.3524C44.2113 48.3524 45.0279 48.9247 45.3103 49.9592C45.3537 50.1203 45.3637 50.2913 45.3954 50.496H26.6725C26.5503 49.5471 27.413 48.5153 28.4287 48.387C28.6179 48.3634 28.8107 48.3524 29.0017 48.3524C33.6718 48.3506 38.3418 48.3506 43.0128 48.3524ZM35.3156 46.8767V38.931H36.7025V46.8767H35.3156ZM46.6736 37.4362C43.1178 37.4371 39.563 37.4362 36.0081 37.4362H25.4106C24.5914 37.4362 24.3379 37.1041 24.5389 36.2961C25.6261 31.9162 26.7105 27.5362 27.8031 23.1571C28.0639 22.109 28.8695 21.4839 29.944 21.483C33.9841 21.4794 38.0241 21.4794 42.065 21.483C43.1386 21.4839 43.947 22.109 44.2086 23.1544C45.3112 27.5653 46.4065 31.9771 47.5028 36.3889C47.6702 37.0631 47.3733 37.4353 46.6736 37.4362Z" fill="white"/>
</g>
<defs>
<linearGradient id="paint0_linear_8_204" x1="36" y1="0" x2="36" y2="72" gradientUnits="userSpaceOnUse">
<stop stop-color="#378BF2"/>
<stop offset="1" stop-color="#2E46A9"/>
</linearGradient>
<clipPath id="clip0_8_204">
<rect width="26" height="32" fill="white" transform="translate(23 20)"/>
</clipPath>
</defs>
</svg>
