<svg width="72" height="72" viewBox="0 0 72 72" fill="none" xmlns="http://www.w3.org/2000/svg">
<rect width="72" height="72" rx="36" fill="white"/>
<g clip-path="url(#clip0_134_87)">
<path d="M54.2822 30.5646C53.8178 30.1914 53.2408 30.0622 52.6637 30.2057L49.0467 31.0957V30.4785C50.0741 30.2919 50.8763 29.3732 50.8763 28.1962C50.8763 27.0191 50.0178 26.1148 48.9341 25.9856C45.8659 23.1579 42.1082 21.5359 38.2237 21.0766C38.4771 20.6603 38.6319 20.1866 38.6319 19.6699C38.6319 18.1914 37.4637 17 36.0141 17C34.5645 17 33.3963 18.2057 33.3963 19.6699C33.3963 20.1866 33.5511 20.6746 33.8045 21.0766C29.92 21.5215 26.1622 23.1579 23.0941 25.9856C21.9963 26.1148 21.1519 27.0478 21.1519 28.2823C21.1519 29.3876 21.94 30.3062 22.9815 30.4785V31.0957L19.3645 30.2057C18.8015 30.0622 18.2104 30.2057 17.76 30.5646C17.2956 30.9378 17.0422 31.4833 17.0422 32.0718C17.0422 32.9617 17.6333 33.7368 18.4778 33.9378L22.9815 35.0574V44.6746C22.9815 47.6172 25.3319 50 28.203 50H43.8533C46.7385 50 49.0748 47.6029 49.0748 44.6746V35.0574L53.5785 33.9378C54.423 33.7225 55.0141 32.9617 55.0141 32.0718C55.0141 31.4833 54.7467 30.9234 54.2963 30.5646H54.2822ZM22.9533 33.5789L18.7733 32.5455C18.5622 32.488 18.4074 32.3014 18.4074 32.0718C18.4074 31.8708 18.52 31.7416 18.5904 31.6842C18.6748 31.6268 18.8437 31.555 18.9985 31.5981L22.9533 32.5742V33.5789ZM36 18.4354C36.6756 18.4354 37.2104 18.9952 37.2104 19.6699C37.2104 20.3445 36.6615 20.9043 36 20.9043C35.3385 20.9043 34.7896 20.3445 34.7896 19.6699C34.7896 18.9952 35.3245 18.4354 36 18.4354ZM46.6822 25.9569H25.3178C31.623 21.177 40.3771 21.177 46.6822 25.9569ZM47.6393 44.6746C47.6393 46.8277 45.9222 48.5646 43.8252 48.5646H28.1748C26.0637 48.5646 24.3608 46.8134 24.3608 44.6746V30.5215H47.6533V44.6746H47.6393ZM48.6808 29.0718H23.3193C22.883 29.0718 22.5311 28.7129 22.5311 28.1962C22.5311 27.7512 22.883 27.3923 23.3193 27.3923H48.6808C49.1171 27.3923 49.4689 27.7512 49.4689 28.2679C49.4689 28.7129 49.1171 29.0718 48.6808 29.0718ZM53.2267 32.5455L49.0467 33.5789V32.5742L53.0015 31.5981C53.1985 31.5407 53.3393 31.6268 53.4096 31.6842C53.48 31.7416 53.5926 31.8565 53.5926 32.0718C53.5926 32.3014 53.4378 32.488 53.2267 32.5455Z" fill="url(#paint0_linear_134_87)"/>
</g>
<defs>
<linearGradient id="paint0_linear_134_87" x1="36.0282" y1="17" x2="36.0282" y2="50" gradientUnits="userSpaceOnUse">
<stop stop-color="#378DF3"/>
<stop offset="1" stop-color="#2D42A5"/>
</linearGradient>
<clipPath id="clip0_134_87">
<rect width="38" height="33" fill="white" transform="translate(17 17)"/>
</clipPath>
</defs>
</svg>
