<svg width="640" height="594" viewBox="0 0 640 594" fill="none" xmlns="http://www.w3.org/2000/svg">
<path fill-rule="evenodd" clip-rule="evenodd" d="M639 297.004C639 306.792 633.695 315.355 625.801 319.965L173.139 580.769C158.899 588.568 142.567 593 125.194 593C116.552 593 108.15 591.881 100.14 589.829L-35 555.118L378.448 316.9C385.639 313.179 390.561 305.664 390.561 297.004C390.561 288.344 385.639 280.83 378.448 277.091L-35 38.8732L100.14 4.17091C108.15 2.11914 116.552 1 125.194 1C142.567 1 158.899 5.44104 173.139 13.2218L625.801 274.035C633.695 278.645 639 287.207 639 297.004Z" stroke="white" stroke-opacity="0.4" stroke-miterlimit="10"/>
<path fill-rule="evenodd" clip-rule="evenodd" d="M-23.5 139C64.029 139 135 209.754 135 296.996C135 384.237 64.029 455 -23.5 455C-111.029 455 -182 384.228 -182 296.996C-182 209.763 -111.011 139 -23.5 139Z" stroke="white" stroke-opacity="0.4" stroke-miterlimit="10"/>
</svg>
