<svg width="1240" height="719" viewBox="0 0 1240 719" fill="none" xmlns="http://www.w3.org/2000/svg">
<path d="M190 588H22C9.84974 588 0 578.15 0 566V86.5C0 74.3497 9.84974 64.5 22 64.5H296.5C308.65 64.5 318.5 54.6503 318.5 42.5V22C318.5 9.84974 328.35 0 340.5 0H395.5H767H866C878.15 0 888 9.84974 888 22V42.5C888 54.6503 897.85 64.5 910 64.5H1218C1230.15 64.5 1240 74.3497 1240 86.5V447C1240 459.15 1230.15 469 1218 469H1052C1039.85 469 1030 478.85 1030 491V631C1030 643.15 1020.15 653 1008 653H947C934.85 653 925 662.85 925 675V696.5C925 708.65 915.15 718.5 903 718.5H340.5C328.35 718.5 318.5 708.65 318.5 696.5V675C318.5 662.85 308.65 653 296.5 653H234C221.85 653 212 643.15 212 631V610C212 597.85 202.15 588 190 588Z" fill="white"/>
</svg>
