<svg width="133" height="102" viewBox="0 0 133 102" fill="none" xmlns="http://www.w3.org/2000/svg">
<path d="M0.164773 102V73.0227C0.164773 64.6894 1.72727 56.0246 4.85227 47.0284C8.07197 37.9375 12.428 29.3674 17.9205 21.3182C23.5076 13.1742 29.7576 6.30871 36.6705 0.721576L60.5341 16.2045C54.947 24.6326 50.2595 33.4394 46.4716 42.625C42.7784 51.7159 40.9792 61.7538 41.0739 72.7386V102H0.164773ZM72.1818 102V73.0227C72.1818 64.6894 73.7443 56.0246 76.8693 47.0284C80.089 37.9375 84.4451 29.3674 89.9375 21.3182C95.5246 13.1742 101.775 6.30871 108.688 0.721576L132.551 16.2045C126.964 24.6326 122.277 33.4394 118.489 42.625C114.795 51.7159 112.996 61.7538 113.091 72.7386V102H72.1818Z" fill="white" fill-opacity="0.2"/>
</svg>
