<svg width="48" height="48" viewBox="0 0 48 48" fill="none" xmlns="http://www.w3.org/2000/svg">
<path d="M23.83 47.66C36.9909 47.66 47.66 36.9909 47.66 23.83C47.66 10.6691 36.9909 0 23.83 0C10.6691 0 0 10.6691 0 23.83C0 36.9909 10.6691 47.66 23.83 47.66Z" fill="url(#paint0_linear_149_74)"/>
<path d="M35.15 21.08C35.15 18.27 32.88 16 30.07 16H17.08C14.27 16 12 18.27 12 21.08V27.12C12 29.93 14.27 32.2 17.08 32.2H30.07C32.88 32.2 35.15 29.93 35.15 27.12V21.08ZM27.51 24.55L21.69 27.43C21.46 27.55 20.69 27.39 20.69 27.13V21.21C20.69 20.95 21.47 20.78 21.7 20.91L27.28 23.94C27.51 24.07 27.76 24.41 27.52 24.54L27.51 24.55Z" fill="white"/>
<defs>
<linearGradient id="paint0_linear_149_74" x1="23.83" y1="0" x2="23.83" y2="47.66" gradientUnits="userSpaceOnUse">
<stop stop-color="#368BF2"/>
<stop offset="1" stop-color="#2F4BAE"/>
</linearGradient>
</defs>
</svg>
